<svg width="151" height="28" viewBox="0 0 151 28" fill="none" xmlns="http://www.w3.org/2000/svg">
<path d="M143.715 21.4203V0H150.463V21.4203H143.715Z" fill="white"/>
<path d="M134.526 18.1443C133.294 20.3843 130.606 21.9523 126.322 21.9523C121.982 21.9523 119.798 20.4683 119.798 17.4163V17.3883C119.798 15.4842 120.61 14.0562 122.374 13.2442C122.906 12.9922 123.466 12.7682 124.054 12.6282C125.258 12.2922 126.91 12.0682 129.654 11.8722C130.97 11.7602 131.922 11.6762 132.594 11.5642C133.994 11.3682 134.358 11.0882 134.358 10.5562C134.358 9.80015 133.686 9.15614 131.25 9.15614C128.282 9.15614 127.274 9.85615 127.162 11.0882H120.274C120.75 6.7481 124.53 4.73207 130.942 4.73207C137.662 4.73207 140.854 6.5521 140.854 11.8162V21.4203H135.142L134.526 18.1443ZM128.954 17.7803C129.934 17.7803 130.858 17.6123 131.67 17.2483C133.322 16.5762 134.386 15.4002 134.386 14.1122V13.9442C133.938 14.3922 132.846 14.7002 131.082 14.9242C129.01 15.1202 128.086 15.2882 127.554 15.5962C127.106 15.8482 126.854 16.1842 126.854 16.6322V16.6602C126.854 17.3603 127.442 17.7803 128.954 17.7803Z" fill="white"/>
<path d="M109.781 21.7843C106.477 21.7843 104.601 20.7203 103.537 18.8723V27.0764H96.9565V5.18008H102.585L103.061 8.20412C104.293 6.07609 106.617 4.81607 109.893 4.81607C111.573 4.81607 113.029 5.15208 114.317 5.79609C116.865 7.1121 118.349 9.66014 118.349 13.4122C118.349 15.2042 117.957 16.6882 117.145 17.9763C115.577 20.4403 112.861 21.7843 109.781 21.7843ZM107.457 16.6882C110.341 16.6882 111.545 15.5402 111.545 13.4402C111.545 11.0882 110.229 9.91215 107.485 9.91215C104.853 9.91215 103.425 11.1442 103.425 13.4402C103.425 15.6242 104.769 16.6882 107.457 16.6882Z" fill="white"/>
<path d="M87.822 18.1443C86.5899 20.3843 83.9019 21.9523 79.6178 21.9523C75.2778 21.9523 73.0938 20.4683 73.0938 17.4163V17.3883C73.0938 15.4842 73.9058 14.0562 75.6698 13.2442C76.2018 12.9922 76.7618 12.7682 77.3498 12.6282C78.5538 12.2922 80.2059 12.0682 82.9499 11.8722C84.2659 11.7602 85.2179 11.6762 85.8899 11.5642C87.29 11.3682 87.654 11.0882 87.654 10.5562C87.654 9.80015 86.982 9.15614 84.5459 9.15614C81.5779 9.15614 80.5699 9.85615 80.4579 11.0882H73.5698C74.0458 6.7481 77.8258 4.73207 84.2379 4.73207C90.958 4.73207 94.1501 6.5521 94.1501 11.8162V21.4203H88.438L87.822 18.1443ZM82.2499 17.7803C83.2299 17.7803 84.1539 17.6123 84.9659 17.2483C86.618 16.5762 87.682 15.4002 87.682 14.1122V13.9442C87.234 14.3922 86.1419 14.7002 84.3779 14.9242C82.3059 15.1202 81.3819 15.2882 80.8499 15.5962C80.4019 15.8482 80.1499 16.1842 80.1499 16.6322V16.6602C80.1499 17.3603 80.7379 17.7803 82.2499 17.7803Z" fill="white"/>
<path d="M60.897 14.6722L57.8449 17.4163V21.4203H51.2368V0H57.8449V11.3962L64.789 5.18008H72.8251L65.993 11.3962L73.0491 21.4203H65.349L60.897 14.6722Z" fill="white"/>
<path d="M48.89 16.2402C47.4899 20.3003 43.9619 21.9523 37.7738 21.9523C33.6857 21.9523 31.0257 21.1123 29.3737 19.6003C27.7216 18.0883 27.0776 16.0722 27.0776 13.7202C27.0776 11.9842 27.4976 10.5282 28.2817 9.12814C29.9337 6.3841 33.1817 4.70407 38.2778 4.70407C40.7418 4.70407 42.7579 5.06808 44.3259 5.82409C47.5179 7.28011 49.03 9.94015 49.03 13.3562V14.9522H33.6577C34.0777 16.5762 35.4218 17.3603 38.1938 17.3603C40.2938 17.3603 41.1618 16.9403 41.6939 16.2402H48.89ZM38.1938 9.35214C35.6738 9.35214 34.3017 10.1641 33.7697 11.6762H42.3379C41.9179 9.99615 40.6298 9.35214 38.1938 9.35214Z" fill="white"/>
<path d="M6.6361 10.3322V21.4203H0V1.34402H6.16009L12.4602 8.84813L18.9003 1.34402H24.8364V21.4203H18.2283V10.2762L12.5442 16.6602H12.0682L6.6361 10.3322Z" fill="white"/>
</svg>
